<svg width="32" height="33" viewBox="0 0 32 33" fill="none" xmlns="http://www.w3.org/2000/svg">
<path d="M29.3334 25.8333C29.3334 26.5406 29.0524 27.2189 28.5523 27.719C28.0522 28.219 27.3739 28.5 26.6667 28.5H5.33335C4.62611 28.5 3.94783 28.219 3.44774 27.719C2.94764 27.2189 2.66669 26.5406 2.66669 25.8333V7.16667C2.66669 6.45942 2.94764 5.78115 3.44774 5.28105C3.94783 4.78095 4.62611 4.5 5.33335 4.5H12L14.6667 8.5H26.6667C27.3739 8.5 28.0522 8.78095 28.5523 9.28105C29.0524 9.78115 29.3334 10.4594 29.3334 11.1667V25.8333Z" stroke="currentColor" stroke-width="2" stroke-linecap="round" stroke-linejoin="round"/>
<path d="M16 15.1666V23.1666" stroke="currentColor" stroke-width="2" stroke-linecap="round" stroke-linejoin="round"/>
<path d="M12 19.1666H20" stroke="currentColor" stroke-width="2" stroke-linecap="round" stroke-linejoin="round"/>
</svg>
