<svg width="22" height="23" viewBox="0 0 22 23" fill="none" xmlns="http://www.w3.org/2000/svg">
<path d="M2.75 17V11.5C2.75 9.31196 3.61919 7.21354 5.16637 5.66637C6.71354 4.11919 8.81196 3.25 11 3.25C13.188 3.25 15.2865 4.11919 16.8336 5.66637C18.3808 7.21354 19.25 9.31196 19.25 11.5V17" stroke="#091824" stroke-width="2" stroke-linecap="round" stroke-linejoin="round"/>
<path d="M19.25 17.9167C19.25 18.4029 19.0568 18.8692 18.713 19.213C18.3692 19.5568 17.9029 19.75 17.4167 19.75H16.5C16.0138 19.75 15.5475 19.5568 15.2036 19.213C14.8598 18.8692 14.6667 18.4029 14.6667 17.9167V15.1667C14.6667 14.6804 14.8598 14.2141 15.2036 13.8703C15.5475 13.5265 16.0138 13.3333 16.5 13.3333H19.25V17.9167ZM2.75 17.9167C2.75 18.4029 2.94315 18.8692 3.28697 19.213C3.63079 19.5568 4.0971 19.75 4.58333 19.75H5.5C5.98623 19.75 6.45255 19.5568 6.79636 19.213C7.14018 18.8692 7.33333 18.4029 7.33333 17.9167V15.1667C7.33333 14.6804 7.14018 14.2141 6.79636 13.8703C6.45255 13.5265 5.98623 13.3333 5.5 13.3333H2.75V17.9167Z" stroke="#091824" stroke-width="2" stroke-linecap="round" stroke-linejoin="round"/>
</svg>
